<?xml version="1.0" encoding="utf-8"?>
<!-- Generator: Adobe Illustrator 26.0.0, SVG Export Plug-In . SVG Version: 6.00 Build 0)  -->
<svg version="1.1" xmlns="http://www.w3.org/2000/svg" xmlns:xlink="http://www.w3.org/1999/xlink" x="0px" y="0px"
	 viewBox="0 0 150 60" style="enable-background:new 0 0 150 60;" xml:space="preserve">
<style type="text/css">
	.st0{fill:#FFFFFF;}
	.st1{fill:#BFA68C;}
	.st2{fill:#213C47;}
	.st3{fill:#E2E2E2;}
</style>
<g id="Capa_1">
</g>
<g id="Capa_2">
	<g id="g8213_2_" transform="matrix(1.0658835,0,0,1.0916578,-42.05077,424.81301)">
	</g>
	<g>
		<path class="st0" d="M55.61,50.96H8.67c-2.23,0-4.06-1.83-4.06-4.06V8.02c0-2.23,1.83-4.06,4.06-4.06h47.24c2.23,0,0,1.83,0,4.06
			V46.9C55.91,49.13,57.85,50.96,55.61,50.96z"/>
		<g>
			<g>
				<path class="st1" d="M12.82,55.18c0,0.88-0.63,1.41-1.68,1.41h-1v1.22H9.57v-4.03h1.57C12.19,53.78,12.82,54.31,12.82,55.18z
					 M12.24,55.18c0-0.58-0.39-0.9-1.12-0.9h-0.98v1.81h0.98C11.86,56.09,12.24,55.76,12.24,55.18z"/>
				<path class="st1" d="M16.52,56.07v-2.29h0.58v2.27c0,0.89,0.41,1.3,1.13,1.3c0.73,0,1.14-0.4,1.14-1.3v-2.27h0.56v2.29
					c0,1.17-0.64,1.79-1.7,1.79C17.17,57.85,16.52,57.24,16.52,56.07z"/>
				<path class="st1" d="M27.45,56.72c0,0.69-0.52,1.09-1.54,1.09h-1.92v-4.03h1.81c0.93,0,1.45,0.39,1.45,1.04
					c0,0.44-0.22,0.74-0.54,0.9C27.15,55.84,27.45,56.18,27.45,56.72z M24.56,54.24v1.29h1.18c0.59,0,0.92-0.22,0.92-0.64
					c0-0.43-0.33-0.64-0.92-0.64H24.56z M26.87,56.67c0-0.47-0.35-0.67-0.98-0.67h-1.32v1.34h1.32
					C26.53,57.34,26.87,57.14,26.87,56.67z"/>
				<path class="st1" d="M31.22,53.78h0.58v3.53h2.18v0.5h-2.76V53.78z"/>
				<path class="st1" d="M37.52,53.78h0.58v4.03h-0.58V53.78z"/>
				<path class="st1" d="M41.86,55.79c0-1.19,0.91-2.06,2.14-2.06c0.62,0,1.16,0.21,1.53,0.63l-0.37,0.36
					c-0.31-0.33-0.69-0.48-1.13-0.48c-0.91,0-1.58,0.66-1.58,1.55c0,0.89,0.67,1.55,1.58,1.55c0.44,0,0.82-0.16,1.13-0.48l0.37,0.36
					c-0.37,0.41-0.91,0.63-1.54,0.63C42.77,57.85,41.86,56.98,41.86,55.79z"/>
				<path class="st1" d="M49.23,53.78h0.58v4.03h-0.58V53.78z"/>
				<path class="st1" d="M53.89,53.78h1.7c1.3,0,2.18,0.82,2.18,2.02c0,1.2-0.88,2.02-2.18,2.02h-1.7V53.78z M55.55,57.31
					c1,0,1.63-0.61,1.63-1.51c0-0.9-0.64-1.51-1.63-1.51h-1.09v3.03H55.55z"/>
				<path class="st1" d="M64.03,56.8h-2.14l-0.44,1.01h-0.59l1.83-4.03h0.57l1.83,4.03h-0.6L64.03,56.8z M63.83,56.34l-0.87-1.98
					l-0.87,1.98H63.83z"/>
				<path class="st1" d="M68.56,53.78h1.7c1.3,0,2.18,0.82,2.18,2.02c0,1.2-0.88,2.02-2.18,2.02h-1.7V53.78z M70.22,57.31
					c1,0,1.63-0.61,1.63-1.51c0-0.9-0.64-1.51-1.63-1.51h-1.09v3.03H70.22z"/>
				<path class="st1" d="M82.55,55.77h0.55v1.57c-0.4,0.34-0.96,0.51-1.53,0.51c-1.24,0-2.15-0.87-2.15-2.06
					c0-1.19,0.91-2.06,2.16-2.06c0.64,0,1.18,0.21,1.55,0.62l-0.36,0.36c-0.33-0.32-0.71-0.47-1.17-0.47
					c-0.93,0-1.61,0.65-1.61,1.55c0,0.89,0.67,1.55,1.6,1.55c0.34,0,0.66-0.07,0.94-0.26V55.77z"/>
				<path class="st1" d="M89.65,56.8h-2.14l-0.44,1.01h-0.59l1.83-4.03h0.57l1.83,4.03h-0.6L89.65,56.8z M89.45,56.34l-0.87-1.98
					l-0.87,1.98H89.45z"/>
				<path class="st1" d="M97.64,53.78v4.03h-0.47l-2.42-3.01v3.01h-0.58v-4.03h0.47l2.42,3.01v-3.01H97.64z"/>
				<path class="st1" d="M104.3,56.8h-2.14l-0.44,1.01h-0.59l1.83-4.03h0.57l1.83,4.03h-0.6L104.3,56.8z M104.1,56.34l-0.87-1.98
					l-0.87,1.98H104.1z"/>
				<path class="st1" d="M108.82,53.78h1.7c1.3,0,2.18,0.82,2.18,2.02c0,1.2-0.88,2.02-2.18,2.02h-1.7V53.78z M110.49,57.31
					c1,0,1.64-0.61,1.64-1.51c0-0.9-0.64-1.51-1.64-1.51h-1.09v3.03H110.49z"/>
				<path class="st1" d="M119.38,57.31v0.5h-2.93v-4.03h2.84v0.5h-2.27v1.24h2.02V56h-2.02v1.3H119.38z"/>
				<path class="st1" d="M125.89,57.81l-0.87-1.24c-0.08,0.01-0.17,0.01-0.25,0.01h-1v1.23h-0.58v-4.03h1.57
					c1.05,0,1.68,0.53,1.68,1.41c0,0.62-0.32,1.07-0.89,1.27l0.96,1.35H125.89z M125.87,55.18c0-0.58-0.39-0.9-1.12-0.9h-0.98v1.81
					h0.98C125.48,56.09,125.87,55.76,125.87,55.18z"/>
				<path class="st1" d="M132.82,56.8h-2.14l-0.44,1.01h-0.59l1.83-4.03h0.57l1.83,4.03h-0.6L132.82,56.8z M132.62,56.34l-0.87-1.98
					l-0.87,1.98H132.62z"/>
			</g>
			<path class="st1" d="M3.57,8.92v36.63c0,3.19,2.6,5.79,5.79,5.79h131.28c3.19,0,5.79-2.6,5.79-5.79V8.92
				c0-3.19-2.6-5.79-5.79-5.79H9.36C6.17,3.14,3.57,5.73,3.57,8.92z M4.57,45.55V8.92c0-2.64,2.15-4.79,4.79-4.79h46.25v46.21H9.36
				C6.72,50.34,4.57,48.19,4.57,45.55z"/>
			<g>
				<path class="st0" d="M79.36,16.59c3.57,0.9,5.86,3.79,5.86,7.65c0,5.07-3.93,8.7-9.4,8.7c-5.36,0-9.04-3.5-9.19-8.66h6.4
					c0.08,1.76,1.17,2.92,2.81,2.92c1.7,0,2.9-1.25,2.9-3.08c0-1.82-1.24-2.95-3.18-2.95h-3.99v-1.39l4.06-6.67h-8.37V7.43h17.1
					v1.15L79.36,16.59L79.36,16.59z"/>
				<path class="st0" d="M106.33,23.71c0,5.47-4.03,9.23-9.88,9.23c-5.88,0-9.92-3.76-9.92-9.2c0-2.56,0.76-5.08,2.85-8.58
					l4.58-7.72h7.2c-1.64,2.75-3.3,5.49-4.94,8.24c0.54-0.08,1.08-0.12,1.65-0.12C102.85,15.55,106.33,18.89,106.33,23.71z
					 M99.91,23.71c0-2.11-1.44-3.54-3.48-3.54c-2.02,0-3.48,1.44-3.48,3.54c0,2.08,1.46,3.5,3.48,3.5
					C98.47,27.21,99.91,25.79,99.91,23.71z"/>
				<path class="st0" d="M108.13,19.93c0-7.98,4.26-13.09,10.91-13.09c6.65,0,10.91,5.11,10.91,13.09c0,7.96-4.29,13.09-10.91,13.09
					C112.42,33.02,108.13,27.89,108.13,19.93z M123.12,19.95c0-4.59-1.47-7.17-4.08-7.17c-2.63,0-4.08,2.56-4.08,7.15
					c0,4.59,1.45,7.15,4.08,7.15S123.12,24.54,123.12,19.95z"/>
			</g>
			<g>
				<g>
					<path class="st0" d="M133.36,14.6c-2.19,0-3.76-1.5-3.76-3.58s1.57-3.58,3.76-3.58c2.19,0,3.75,1.49,3.75,3.58
						S135.55,14.6,133.36,14.6L133.36,14.6z M135.15,11.02c0-1.07-0.75-1.84-1.79-1.84c-1.04,0-1.8,0.77-1.8,1.83
						s0.76,1.83,1.8,1.83C134.4,12.85,135.15,12.09,135.15,11.02z"/>
				</g>
			</g>
			<g>
				<g>
					<g>
						<path class="st2" d="M71.98,45.6c-1.82,1.18-3.57,1.74-5.26,1.74c-1.75,0-3.13-0.52-4.15-1.61c-0.97-1.03-1.45-2.34-1.45-3.95
							c0-1.65,0.49-2.98,1.5-3.98c1.04-1.05,2.45-1.57,4.25-1.57c0.56,0,1.09,0.05,1.55,0.12c0.46,0.08,1,0.28,1.63,0.6
							c0.31,0.15,0.53,0.23,0.66,0.23c0.09,0,0.19-0.06,0.34-0.2l0.2,0.12l-1.12,2.6l-0.19-0.14c-0.02-0.48-0.43-0.88-1.22-1.17
							c-0.63-0.23-1.28-0.35-1.91-0.35c-1.11,0-2.01,0.38-2.67,1.15c-0.61,0.71-0.92,1.58-0.92,2.61c0,1.05,0.32,1.92,0.95,2.61
							c0.7,0.75,1.6,1.12,2.74,1.12c1.12,0,2.08-0.26,2.87-0.77v-1.48h-2.35c-0.26,0-0.41,0.17-0.49,0.49h-0.22v-2.49h0.22
							c0.09,0.34,0.24,0.51,0.49,0.51h4.52v0.26c-0.29,0.08-0.44,0.26-0.44,0.57v2.2c0,0.29,0.15,0.49,0.44,0.57V45.6z"/>
						<path class="st2" d="M81.29,47.16h-3.2v-0.22c0.29-0.05,0.44-0.22,0.44-0.48c0-0.12-0.2-0.63-0.6-1.52h-3.59
							c-0.37,0.88-0.56,1.38-0.56,1.52c0,0.26,0.14,0.42,0.43,0.48v0.22h-2.86v-0.22c0.19,0,0.34-0.08,0.46-0.25l0.22-0.48
							l2.87-6.52c0.1-0.23,0.15-0.45,0.15-0.65c0-0.22-0.14-0.38-0.39-0.51v-0.23h3.04v0.23c-0.26,0.11-0.39,0.29-0.39,0.54
							c0,0.15,0.07,0.37,0.19,0.63l2.96,6.33c0.14,0.29,0.24,0.48,0.29,0.55c0.14,0.18,0.31,0.29,0.53,0.34V47.16z M76.1,40.89
							l-1.22,2.83h2.48L76.1,40.89z"/>
						<path class="st2" d="M90.57,47.16h-2.81v-0.22c0.2-0.03,0.31-0.12,0.31-0.29c0-0.11-0.15-0.34-0.48-0.69l-4.15-4.63v5.03
							c0,0.29,0.15,0.48,0.46,0.58v0.22h-2.6v-0.22c0.29-0.09,0.44-0.29,0.44-0.58v-7.23c0-0.29-0.15-0.49-0.44-0.58v-0.23h3.01
							v0.23c-0.22,0.06-0.32,0.17-0.32,0.31c0,0.12,0.09,0.28,0.24,0.45l4.18,4.7v-4.87c0-0.29-0.15-0.49-0.44-0.58v-0.23h2.6v0.23
							c-0.31,0.11-0.46,0.29-0.46,0.58v7.23c0,0.28,0.15,0.48,0.46,0.58V47.16z"/>
						<path class="st2" d="M100.5,47.16h-3.2v-0.22c0.29-0.05,0.44-0.22,0.44-0.48c0-0.12-0.2-0.63-0.6-1.52h-3.59
							C93.18,45.83,93,46.33,93,46.47c0,0.26,0.14,0.42,0.43,0.48v0.22h-2.86v-0.22c0.19,0,0.34-0.08,0.46-0.25l0.22-0.48l2.87-6.52
							c0.1-0.23,0.15-0.45,0.15-0.65c0-0.22-0.14-0.38-0.39-0.51v-0.23h3.04v0.23c-0.26,0.11-0.39,0.29-0.39,0.54
							c0,0.15,0.07,0.37,0.19,0.63l2.96,6.33c0.14,0.29,0.24,0.48,0.29,0.55c0.14,0.18,0.31,0.29,0.53,0.34V47.16z M95.31,40.89
							l-1.22,2.83h2.48L95.31,40.89z"/>
						<path class="st2" d="M105.09,47.16h-4.59v-0.22c0.29-0.09,0.44-0.29,0.44-0.58v-7.23c0-0.31-0.15-0.51-0.44-0.58v-0.23h4.59
							c1.31,0,2.35,0.35,3.11,1.05c0.78,0.69,1.17,1.81,1.17,3.38C109.38,45.69,107.95,47.16,105.09,47.16z M104.82,39.94h-1.99
							v5.61h1.99c1.77,0,2.65-0.94,2.65-2.8C107.47,40.87,106.59,39.94,104.82,39.94z"/>
						<path class="st2" d="M117.47,45.06v2.58h-0.19c-0.09-0.34-0.26-0.48-0.53-0.48h-7.28v-0.22c0.29-0.09,0.44-0.29,0.44-0.58
							v-7.26c0-0.28-0.15-0.46-0.44-0.55v-0.23h7.06c0.27,0,0.44-0.17,0.53-0.49h0.2v2.61h-0.2c-0.09-0.34-0.26-0.51-0.53-0.51
							h-4.73v1.92h2.94c0.26,0,0.43-0.17,0.53-0.51h0.19v2.57h-0.19c-0.1-0.34-0.27-0.51-0.53-0.51h-2.94v2.14h4.95
							c0.27,0,0.44-0.17,0.53-0.49H117.47z"/>
						<path class="st2" d="M126.86,47.16h-3.27v-0.22c0.24-0.05,0.36-0.14,0.36-0.28c0-0.17-0.07-0.38-0.22-0.62l-1.56-2.52h-1.87
							v2.83c0,0.28,0.14,0.48,0.43,0.58v0.22h-2.76v-0.22c0.29-0.09,0.44-0.29,0.44-0.58v-7.23c0-0.29-0.15-0.49-0.44-0.58v-0.23
							h5.2c1.11,0,1.89,0.17,2.38,0.52c0.56,0.38,0.83,1.08,0.83,2.04c0,1.43-0.65,2.18-2.19,2.55l1.5,2.34
							c0.22,0.35,0.39,0.58,0.48,0.69c0.22,0.26,0.46,0.43,0.7,0.48V47.16z M124.09,40.09c-0.19-0.11-0.51-0.15-0.99-0.15h-2.81
							v1.98h2.81c0.46,0,0.8-0.05,0.99-0.15c0.26-0.14,0.39-0.42,0.39-0.83S124.35,40.23,124.09,40.09z"/>
						<path class="st2" d="M129.62,47.16h-2.76v-0.22c0.29-0.09,0.44-0.29,0.44-0.58v-7.26c0-0.28-0.15-0.46-0.44-0.55v-0.23h2.76
							v0.23c-0.29,0.09-0.43,0.29-0.43,0.58v7.23c0,0.28,0.14,0.48,0.43,0.58V47.16z"/>
						<path class="st2" d="M139.55,47.16h-3.2v-0.22c0.29-0.05,0.44-0.22,0.44-0.48c0-0.12-0.2-0.63-0.6-1.52h-3.59
							c-0.37,0.88-0.56,1.38-0.56,1.52c0,0.26,0.14,0.42,0.43,0.48v0.22h-2.86v-0.22c0.19,0,0.34-0.08,0.46-0.25l0.22-0.48
							l2.87-6.52c0.1-0.23,0.15-0.45,0.15-0.65c0-0.22-0.14-0.38-0.39-0.51v-0.23h3.04v0.23c-0.26,0.11-0.39,0.29-0.39,0.54
							c0,0.15,0.07,0.37,0.19,0.63l2.96,6.33c0.14,0.29,0.24,0.48,0.29,0.55c0.14,0.18,0.31,0.29,0.53,0.34V47.16z M134.36,40.89
							l-1.22,2.83h2.48L134.36,40.89z"/>
					</g>
				</g>
				<path class="st0" d="M128.1,34.48l-0.01,2.54c0,0.41,0.55,0.66,0.96,0.43l2.17-1.24c0.35-0.2,0.36-0.63,0.01-0.84l-2.15-1.31
					C128.67,33.82,128.1,34.06,128.1,34.48z"/>
			</g>
		</g>
		<path class="st3" d="M50.39,21.24c-0.71,0-1.32,0.42-1.6,1.03h-1.08v-1.2h-2.47l-0.84-0.91l-0.19,0c-0.15,0-1.28-0.01-2.82-0.02
			c0.32-0.37,0.52-0.86,0.52-1.39c0-1.18-0.96-2.13-2.13-2.13c-1.18,0-2.13,0.96-2.13,2.13c0,0.52,0.19,1,0.5,1.37
			c-0.8,0-1.6-0.01-2.36-0.01c0.47-0.48,0.76-1.13,0.76-1.85c0-1.45-1.18-2.63-2.63-2.63c-1.45,0-2.63,1.18-2.63,2.63
			c0,0.71,0.28,1.35,0.74,1.83c-0.3,0-0.48,0-0.49,0h-0.44v1.11l-0.99-0.33c-0.07-0.42-0.19-0.88-0.43-1.42
			c-0.73-1.65-2.02-2.26-2.69-2.47c0.35-1.27,2.6-2.5,3.74-3.12c0.62-0.34,0.88-0.48,1.01-0.63c0.39-0.46,0.45-1.97-0.01-2.77
			c-0.29-0.5-0.75-0.73-1.3-0.64c-0.16,0.03-0.28,0.09-0.41,0.14c-0.01-0.02,0-0.06-0.01-0.06c-0.14-0.03-5.6-1.65-6.28-1.85
			c0.03-0.28,0.03-0.53-0.1-0.7c-0.15-0.2-0.41-0.27-0.66-0.17c-1.31,0.52-1.78,1.36-1.9,2.03c-0.97-0.38-2.35-0.63-3.55,0.27
			c-0.14,0.11-0.2,0.29-0.15,0.46c0.13,0.42,0.49,1.02,1.12,1.47c0.46,0.33,1.11,0.51,1.88,0.54c0.11,0.43,0.37,1.72,0.01,2.85
			c-0.07,0.21-0.29,0.73-0.61,1.43c-0.98-0.07-4.08-0.05-5.64,2.75c-0.98,1.76-0.32,3.23,0.54,3.96c0.55,0.47,1.22,0.69,1.81,0.64
			c-0.4,1.12-1.37,3.32-3.37,5.6c-0.81,0.92-1.13,1.92-1.12,2.9c-0.7,0.39-1.63,1.32-1.63,3.52c0,1.2,0.37,2.48,0.72,3.73
			c0.45,1.58,0.7,2.64,0.51,3.29l-0.03-0.02c-0.14,0.24-0.19,0.28-1.2,0.04c-0.3-0.07-0.68-0.16-1.11-0.24
			c-0.67-0.12-1.19-0.01-1.55,0.33c-0.55,0.53-0.46,1.36-0.44,1.46l0.03,0.21l0.19,0.1c0.07,0.04,0.3,0.13,0.82,0.13
			c0.55,0,1.43-0.11,2.79-0.51c2.06-0.61,1.42-2.85,0.8-5.01c-0.34-1.19-0.69-2.41-0.69-3.5c0-1.49,0.47-2.22,0.91-2.59
			c0.26,1.14,0.95,2.22,1.84,3.09c0,0-0.01,0-0.01,0.01c0.04,0.04,0.09,0.08,0.13,0.12c0.03,0.02,0.05,0.05,0.07,0.08
			c0,0,0.02,0.01,0.02,0.01c0.01,0.01,0.03,0.03,0.04,0.04c2.5,2.06,2.46,3.42,2.46,3.43c0,0.01,0,0.02,0,0.04v4.82
			c0,0.03,0,0.06,0.01,0.09l0.28,1.21c0.04,0.19,0.21,0.32,0.4,0.32h1.86c0.13,0,0.26-0.06,0.33-0.17c0.02-0.03,0-0.07,0.02-0.11
			h1.99c0.13,0,0.25-0.06,0.33-0.17c0.08-0.11,0.1-0.24,0.06-0.37l-0.39-1.25v-5.38c0.18-0.21,0.49-0.62,0.68-1.06
			c0.09-0.21,0.15-0.62-0.06-0.71c-0.02-0.01-0.06,0.02-0.08,0.02c0.15-0.05,0.31-0.13,0.47-0.22l0.12,0.21
			c0.07,0.13,0.24,0.17,0.37,0.09l0.15-0.09c0.13-0.08,0.17-0.24,0.09-0.37l-0.17-0.29c0.04-0.04,0.09-0.07,0.13-0.12
			c0.05-0.06,0.09-0.13,0.13-0.19l0.19,0.11c0.13,0.08,0.29,0.03,0.37-0.09l0.09-0.15c0.08-0.13,0.03-0.29-0.09-0.37l-0.2-0.12
			c0.05-0.12,0.1-0.25,0.13-0.37l0.22,0.05c0.14,0.03,0.29-0.05,0.32-0.2l0.04-0.17c0.03-0.14-0.05-0.29-0.2-0.32l-0.29-0.07
			c0.04-0.81-0.17-1.48-0.19-1.53c-0.02-0.06-0.08-0.09-0.12-0.14l3.66-7.93l3.78,1.43v2.34h2.57v1.39
			c-0.02,0.17-0.05,0.66,0.32,1.12c0.42,0.53,1.2,0.81,2.31,0.84c0.07,0.2,0.18,0.39,0.31,0.55v3.79l-0.01,0
			c-0.14,0.32-2.58,4.77-4.2,7.69c-0.08,0.12-0.35,0.59-0.23,1.15c0.09,0.42,0.36,0.78,0.82,1.06c0.17,0.11,0.36,0.16,0.55,0.16
			c0.11,0,0.22-0.02,0.32-0.05c0.72-0.24,1.18-1.24,1.29-1.49l1.47-2.67v2.7l0.01,0.1c0.12,0.51,0.6,1.47,1.63,1.47
			c1.06,0,1.44-1,1.49-1.53l0-3.14l1.52,2.78c0.11,0.26,0.56,1.25,1.29,1.49c0.11,0.04,0.22,0.05,0.32,0.05
			c0.19,0,0.37-0.05,0.55-0.16c0.46-0.28,0.73-0.63,0.82-1.06c0.12-0.56-0.15-1.03-0.23-1.15c-1.62-2.93-4.06-7.38-4.2-7.69
			l-0.07,0.02l0-3.62c0.1-0.14,0.18-0.29,0.24-0.46c1.03-0.05,1.77-0.33,2.17-0.84c0.37-0.46,0.35-0.95,0.32-1.12v-1.39h2.38
			l0.73-1.02h2.11v-1.28h1.18c0.31,0.51,0.86,0.85,1.5,0.85c0.97,0,1.75-0.79,1.75-1.75V23C52.15,22.03,51.36,21.24,50.39,21.24z"/>
		<g>
			<g>
				<path class="st2" d="M50.38,21.3c-0.71,0-1.32,0.43-1.6,1.03h-1.08v-1.2h-2.47l-0.84-0.91l-0.19,0c-0.15,0-1.28-0.01-2.82-0.02
					c0.32-0.37,0.52-0.86,0.52-1.39c0-1.18-0.96-2.13-2.13-2.13c-1.18,0-2.13,0.96-2.13,2.13c0,0.52,0.19,1,0.5,1.37
					c-0.8,0-1.6-0.01-2.36-0.01c0.47-0.48,0.76-1.13,0.76-1.85c0-1.45-1.18-2.63-2.63-2.63c-1.45,0-2.63,1.18-2.63,2.63
					c0,0.71,0.28,1.35,0.74,1.83c-0.3,0-0.48,0-0.49,0h-0.44v2.31l0.88,0.39v-1.82c1.49,0.01,6.43,0.04,9.56,0.06v1.15h0.91v-1.14
					c0.73,0,1.28,0.01,1.56,0.01l0.84,0.91h1.98v0.8v0.4v2.23v0.39v0.89h-1.68l-0.73,1.02h-1.93V23.4h-0.88v4.34h-9.63v-0.6
					l-0.88-0.29v1.76h2.57V30c-0.02,0.17-0.05,0.66,0.32,1.12c0.43,0.53,1.2,0.81,2.31,0.84c0.07,0.2,0.18,0.39,0.31,0.55v3.79
					l-0.01,0c-0.14,0.32-2.58,4.77-4.2,7.69c-0.08,0.12-0.35,0.59-0.23,1.15c0.09,0.42,0.36,0.78,0.82,1.06
					c0.17,0.11,0.36,0.16,0.54,0.16c0.11,0,0.22-0.02,0.32-0.05c0.72-0.24,1.18-1.24,1.29-1.49l1.46-2.67v2.7l0.01,0.1
					c0.12,0.51,0.6,1.47,1.63,1.47c1.06,0,1.44-1,1.49-1.53l0-3.14l1.52,2.78c0.11,0.26,0.56,1.25,1.29,1.49
					c0.11,0.04,0.22,0.05,0.32,0.05c0.19,0,0.37-0.05,0.54-0.16c0.46-0.28,0.73-0.63,0.82-1.06c0.12-0.57-0.15-1.03-0.23-1.15
					c-1.62-2.93-4.06-7.38-4.2-7.69l-0.07,0.02l0-3.62c0.1-0.14,0.18-0.29,0.24-0.46c1.03-0.05,1.77-0.33,2.17-0.84
					c0.37-0.46,0.35-0.95,0.32-1.12v-1.39h2.38l0.73-1.02h2.11v-1.28h1.18c0.31,0.51,0.86,0.85,1.5,0.85c0.97,0,1.75-0.79,1.75-1.75
					v-2.36C52.14,22.09,51.35,21.3,50.38,21.3z M33.92,20.08c-0.97,0-1.75-0.79-1.75-1.75s0.79-1.75,1.75-1.75
					c0.97,0,1.75,0.79,1.75,1.75S34.89,20.08,33.92,20.08z M39.78,20.08c-0.69,0-1.26-0.56-1.26-1.26c0-0.69,0.56-1.26,1.26-1.26
					s1.26,0.56,1.26,1.26C41.03,19.51,40.47,20.08,39.78,20.08z M36.62,40.32l-2.24,4.09l-0.02,0.05c-0.15,0.37-0.5,0.93-0.76,1.02
					c-0.03,0.01-0.07,0.02-0.14-0.02c-0.24-0.14-0.38-0.31-0.41-0.48c-0.06-0.25,0.11-0.5,0.11-0.5l0.03-0.04
					c1.8-3.26,2.84-5.16,3.45-6.28V40.32z M38.88,44.82c-0.01,0.11-0.12,0.72-0.62,0.72c-0.51,0-0.72-0.59-0.77-0.75v-5.01h1.39
					V44.82z M38.88,38.9H37.5v-2.23h1.39V38.9z M38.88,35.8H37.5v-2.55h1.39V35.8z M38.15,32.37c-0.6,0-1.09-0.49-1.09-1.09
					c0-0.6,0.49-1.09,1.09-1.09c0.6,0,1.09,0.49,1.09,1.09C39.25,31.88,38.76,32.37,38.15,32.37z M43.26,44.14l0.02,0.04
					c0,0,0.16,0.25,0.11,0.5c-0.04,0.17-0.18,0.34-0.41,0.48c-0.07,0.04-0.1,0.03-0.14,0.02c-0.27-0.09-0.62-0.66-0.76-1.02L39.8,40
					l-0.04,0.02l0-2.27C40.35,38.86,41.4,40.78,43.26,44.14z M41.49,30.57c-0.22,0.28-0.71,0.45-1.38,0.5
					c-0.1-0.99-0.94-1.77-1.96-1.77c-1.02,0-1.86,0.78-1.96,1.78c-0.73-0.04-1.26-0.21-1.5-0.5c-0.19-0.22-0.15-0.45-0.15-0.46
					l0.01-1.52h7.07v1.42l0.01,0.09C41.63,30.13,41.66,30.35,41.49,30.57z M47.71,25.44v-2.23h0.92v2.2c0,0.01,0,0.02,0,0.02H47.71z
					 M51.26,25.41c0,0.48-0.39,0.88-0.88,0.88c-0.48,0-0.88-0.39-0.88-0.88v-2.36c0-0.48,0.39-0.88,0.88-0.88
					c0.48,0,0.88,0.39,0.88,0.88V25.41z"/>
			</g>
			<path class="st2" d="M20.22,17.31c0.51-1.1,0.86-1.91,0.96-2.22c0.51-1.62-0.02-3.42-0.04-3.5c-0.07-0.22-0.3-0.34-0.51-0.28
				c-0.22,0.07-0.34,0.3-0.28,0.51c0,0.02,0.48,1.64,0.05,3.01c-0.1,0.31-0.51,1.23-1.1,2.51C19.54,17.47,19.9,17.3,20.22,17.31z"/>
			<path class="st2" d="M20.5,16.71c-0.35,0.86-0.79,1.46-0.82,1.5c-0.14,0.18-0.39,0.22-0.58,0.08c-0.18-0.14-0.22-0.39-0.08-0.58
				c0.01-0.01,0.43-0.59,0.75-1.39L20.5,16.71z"/>
			<g>
				<path class="st2" d="M21.57,46.02h-1.03c-0.23,0-0.41-0.18-0.41-0.41s0.18-0.41,0.41-0.41h0.47l-0.15-0.49h-0.53
					c-0.23,0-0.41-0.18-0.41-0.41c0-0.23,0.18-0.41,0.41-0.41h0.42v-5.08c0-0.23,0.18-0.41,0.41-0.41c0.23,0,0.41,0.18,0.41,0.41
					v5.42l0.39,1.25c0.04,0.12,0.02,0.26-0.06,0.37C21.82,45.96,21.7,46.02,21.57,46.02z"/>
			</g>
			<g>
				<path class="st2" d="M29.99,20.88c-0.22-0.07-0.45,0.04-0.52,0.26c-0.07,0.22,0.04,0.45,0.26,0.52l1.87,0.63
					c0-0.25,0-0.61,0-0.87L29.99,20.88z"/>
			</g>
			<g>
				<g>
					<path class="st2" d="M11.21,35.64c0-1.78,0.68-2.5,1.17-2.79c0-0.3,0-0.6,0-0.9c-0.68,0.26-1.99,1.09-1.99,3.69
						c0,1.2,0.37,2.48,0.72,3.73c0.45,1.58,0.7,2.64,0.51,3.29l-0.03-0.02c-0.14,0.24-0.19,0.28-1.2,0.04
						c-0.3-0.07-0.67-0.16-1.11-0.24c-0.67-0.12-1.19-0.01-1.55,0.33c-0.55,0.53-0.46,1.36-0.44,1.46l0.03,0.21l0.19,0.1
						c0.07,0.04,0.3,0.13,0.82,0.13c0.55,0,1.43-0.11,2.79-0.51c2.06-0.61,1.42-2.85,0.8-5.01C11.56,37.95,11.21,36.72,11.21,35.64z
						 M8.09,43.83c0.02-0.16,0.07-0.35,0.2-0.47c0.2-0.19,0.56-0.17,0.83-0.12c0.42,0.08,0.77,0.16,1.08,0.23
						c0.05,0.01,0.09,0.02,0.14,0.03C9.08,43.84,8.4,43.85,8.09,43.83z"/>
				</g>
			</g>
			<path class="st2" d="M22.99,31.38"/>
			<g>
				<path class="st2" d="M22.75,34.2c-0.06,0-0.11-0.01-0.17-0.04c-0.21-0.09-0.3-0.34-0.21-0.54l4.36-9.47
					c0.09-0.2,0.32-0.3,0.52-0.22l7.43,2.81l1.08-0.06v-1.17l-0.37,0.07v0.39c0,0.23-0.18,0.41-0.41,0.41
					c-0.23,0-0.41-0.18-0.41-0.41v-0.56l-5.16-2.27c-0.11-0.05-0.19-0.14-0.23-0.26c-0.04-0.11-0.02-0.24,0.04-0.34
					c0,0,0.5-0.91-0.3-2.71c-0.81-1.82-2.41-2.09-2.48-2.1c-0.22-0.03-0.38-0.24-0.35-0.47c0.03-0.22,0.24-0.38,0.47-0.35
					c0.09,0.01,2.12,0.33,3.11,2.58c0.66,1.48,0.57,2.5,0.42,3.04l5.05,2.23c0.01,0,0.02,0.01,0.03,0.01l0.92-0.18
					c0.12-0.02,0.25,0.01,0.34,0.09c0.09,0.08,0.15,0.2,0.15,0.32v2.06c0,0.22-0.17,0.4-0.39,0.41l-1.56,0.09
					c-0.06,0-0.12-0.01-0.17-0.03l-7.15-2.7l-4.21,9.11C23.06,34.11,22.91,34.2,22.75,34.2z"/>
			</g>
			<g>
				<path class="st2" d="M23.37,8.85l0.23-0.79c0,0,6.26,1.86,6.41,1.89c0.15,0.04-0.23,0.79-0.23,0.79L23.37,8.85z"/>
			</g>
			<g>
				<path class="st2" d="M26.22,17.71c-0.07-0.07-0.11-0.17-0.12-0.27c-0.07-1.91,2.63-3.38,4.24-4.25c0.33-0.18,0.7-0.38,0.78-0.45
					c0.11-0.18,0.22-1.31-0.13-1.86c-0.11-0.17-0.23-0.23-0.42-0.19c-0.31,0.05-0.53,0.17-0.65,0.34c-0.16,0.24-0.1,0.53-0.1,0.54
					c0,0,0.12,0.4-0.29,0.48c-0.41,0.08-0.51-0.3-0.51-0.3c-0.01-0.06-0.13-0.64,0.22-1.17c0.25-0.37,0.65-0.61,1.2-0.7
					c0.55-0.09,1.01,0.13,1.3,0.64c0.46,0.8,0.4,2.31,0.01,2.77c-0.13,0.16-0.39,0.3-1.01,0.64c-1.21,0.66-3.69,2-3.81,3.35
					L26.22,17.71z"/>
			</g>
			<g>
				<path class="st2" d="M18.5,11.45c-0.63-0.45-0.99-1.05-1.12-1.47c-0.05-0.17,0.01-0.35,0.15-0.46C19.58,8,22.19,9.81,22.3,9.89
					c0.19,0.13,0.23,0.39,0.1,0.57c-0.13,0.19-0.39,0.23-0.57,0.1c-0.04-0.03-1.99-1.37-3.53-0.55c0.26,0.47,0.98,1.37,2.6,1.19
					c0.23-0.02,0.43,0.14,0.45,0.37c0.02,0.23-0.14,0.43-0.37,0.45C19.9,12.14,19.09,11.86,18.5,11.45z"/>
			</g>
			<path class="st2" d="M23.35,37.02l-0.44,0.26c-0.05,0.03-0.11,0.01-0.14-0.04l-0.4-0.67c-0.03-0.05-0.01-0.11,0.04-0.14
				l0.44-0.26c0.05-0.03,0.11-0.01,0.14,0.04l0.4,0.67C23.42,36.93,23.4,36.99,23.35,37.02z"/>
			<path class="st2" d="M24.13,35.86l-0.26,0.44c-0.03,0.05-0.09,0.06-0.14,0.03l-0.67-0.4c-0.05-0.03-0.06-0.09-0.03-0.14
				l0.26-0.44c0.03-0.05,0.09-0.06,0.14-0.03l0.67,0.4C24.14,35.75,24.16,35.82,24.13,35.86z"/>
			<path class="st2" d="M24.5,34.67l-0.12,0.5c-0.01,0.05-0.07,0.09-0.12,0.07l-0.76-0.18c-0.05-0.01-0.09-0.07-0.07-0.12l0.12-0.5
				c0.01-0.05,0.07-0.09,0.12-0.07l0.76,0.18C24.48,34.56,24.51,34.61,24.5,34.67z"/>
			<circle class="st2" cx="24.49" cy="10.79" r="0.58"/>
			<path class="st2" d="M19.23,44.52v-5.29c0.49-0.71,2.97-4.54,1.83-7.37c-0.09-0.21-0.33-0.31-0.54-0.23
				c-0.21,0.09-0.31,0.33-0.23,0.54c1.07,2.64-1.78,6.64-1.81,6.68c-0.05,0.07-0.08,0.15-0.08,0.24v5.07h-0.41
				c-0.23,0-0.41,0.18-0.41,0.41S17.76,45,17.99,45h0.52l0.15,0.48H17.7l-0.19-0.85v-4.76c0.02-0.27-0.02-1.85-2.76-4.11
				c-0.09-0.07-0.16-0.14-0.24-0.22c-0.18,0.21-0.39,0.39-0.56,0.61c0.09,0.08,0.17,0.17,0.27,0.25c2.5,2.06,2.46,3.42,2.46,3.43
				c0,0.01,0,0.02,0,0.04v4.82c0,0.03,0,0.06,0.01,0.09l0.27,1.21c0.04,0.19,0.21,0.32,0.4,0.32h1.86c0.13,0,0.25-0.06,0.33-0.17
				c0.08-0.11,0.1-0.24,0.06-0.37L19.23,44.52z"/>
			<g>
				<path class="st2" d="M33.76,23.17h5.59v2.11h-1.97c0,0.28,0,0.51,0,0.82h2.8v-3.76h-7.24v0.57L33.76,23.17z"/>
			</g>
			<g>
				<path class="st2" d="M21.47,10.27c-0.2,0-0.37-0.13-0.41-0.33c-0.13-0.62,0.1-1.98,1.92-2.7c0.25-0.1,0.51-0.03,0.66,0.17
					c0.4,0.53-0.22,1.9-0.5,2.26c-0.14,0.18-0.41,0.22-0.59,0.08c-0.18-0.14-0.22-0.41-0.08-0.59c0.16-0.21,0.32-0.61,0.4-0.92
					c-1.13,0.63-0.99,1.51-0.98,1.55c0.04,0.23-0.11,0.45-0.33,0.49C21.53,10.26,21.5,10.27,21.47,10.27z"/>
			</g>
			<g>
				<path class="st2" d="M21.13,39.15c-0.1,0-0.2-0.04-0.28-0.11c-0.17-0.15-0.18-0.41-0.02-0.58c0,0,0.45-0.49,0.65-0.97
					c0.09-0.21,0.33-0.31,0.54-0.22c0.21,0.09,0.31,0.33,0.22,0.54c-0.26,0.62-0.78,1.19-0.81,1.21
					C21.35,39.11,21.24,39.15,21.13,39.15z"/>
			</g>
			<g>
				<path class="st2" d="M21.34,37.25c-0.49,0-0.84-0.15-0.87-0.16c-0.21-0.09-0.3-0.33-0.21-0.54c0.09-0.21,0.33-0.3,0.54-0.21
					c0.05,0.02,1.01,0.4,1.85-0.55c0.89-0.99,0.36-2.6,0.36-2.62c-0.07-0.22,0.04-0.45,0.26-0.52c0.22-0.07,0.45,0.04,0.52,0.26
					c0.03,0.08,0.68,2.08-0.52,3.43C22.61,37.07,21.89,37.25,21.34,37.25z"/>
			</g>
			<g>
				<path class="st2" d="M14.6,36.53c-0.1,0-0.36-0.12-0.44-0.19c-2.02-1.84-3.12-4.72-1.02-7.12c1.99-2.29,2.96-4.48,3.37-5.6
					c-0.59,0.05-1.26-0.17-1.81-0.63c-0.86-0.73-1.53-2.2-0.54-3.96c1.83-3.28,5.79-2.75,5.96-2.72c0.22,0.03,0.38,0.24,0.35,0.47
					c-0.03,0.23-0.24,0.38-0.47,0.35c-0.15-0.02-3.57-0.47-5.12,2.31c-0.74,1.32-0.3,2.38,0.36,2.93c0.56,0.47,1.27,0.59,1.66,0.27
					c0.14-0.11,0.33-0.12,0.48-0.03c0.15,0.09,0.22,0.27,0.18,0.44c-0.03,0.13-0.8,3.3-3.79,6.72c-1.85,2.12-0.56,4.58,1.04,6.03
					c0.17,0.15,0.1,0.39-0.05,0.56C14.66,36.45,14.71,36.53,14.6,36.53z"/>
			</g>
		</g>
	</g>
</g>
</svg>
